# Blender v2.77 (sub 0) OBJ File: ''
# www.blender.org
v -0.258819 0.965926 0.000000
v -0.500000 0.866025 0.000000
v -0.707107 0.707107 0.000000
v -0.866025 0.500000 0.000000
v -0.965926 0.258819 0.000000
v -1.000000 0.000000 0.000000
v -0.965926 -0.258819 0.000000
v -0.866026 -0.500000 0.000000
v -0.707107 -0.707107 0.000000
v -0.500000 -0.866025 0.000000
v -0.258819 -0.965926 0.000000
v -0.000000 -1.000000 0.000000
v -0.224144 0.965926 -0.129409
v -0.433013 0.866025 -0.250000
v -0.612372 0.707107 -0.353553
v -0.750000 0.500000 -0.433013
v -0.836516 0.258819 -0.482963
v -0.866025 0.000000 -0.500000
v -0.836516 -0.258819 -0.482963
v -0.750000 -0.500000 -0.433013
v -0.612373 -0.707107 -0.353553
v -0.433013 -0.866025 -0.250000
v -0.224144 -0.965926 -0.129409
v -0.129410 0.965926 -0.224144
v -0.250000 0.866025 -0.433012
v -0.353554 0.707107 -0.612372
v -0.433013 0.500000 -0.750000
v -0.482963 0.258819 -0.836516
v -0.500000 0.000000 -0.866025
v -0.482963 -0.258819 -0.836516
v -0.433013 -0.500000 -0.750000
v -0.353554 -0.707107 -0.612372
v -0.250000 -0.866025 -0.433013
v -0.129410 -0.965926 -0.224144
v -0.000000 0.965926 -0.258819
v -0.000000 0.866025 -0.500000
v -0.000000 0.707107 -0.707106
v -0.000000 0.500000 -0.866025
v -0.000000 0.258819 -0.965925
v -0.000000 0.000000 -1.000000
v -0.000000 -0.258819 -0.965926
v -0.000000 -0.500000 -0.866025
v -0.000000 -0.707107 -0.707107
v -0.000000 -0.866025 -0.500000
v -0.000000 -0.965926 -0.258819
v 0.129409 0.965926 -0.224144
v 0.249999 0.866025 -0.433012
v 0.353553 0.707107 -0.612372
v 0.433012 0.500000 -0.750000
v 0.482962 0.258819 -0.836516
v 0.499999 0.000000 -0.866025
v 0.482962 -0.258819 -0.836516
v 0.433012 -0.500000 -0.750000
v 0.353553 -0.707107 -0.612372
v 0.250000 -0.866025 -0.433012
v 0.129409 -0.965926 -0.224144
v -0.000001 1.000000 0.000000
v 0.224143 0.965926 -0.129409
v 0.433012 0.866025 -0.250000
v 0.612372 0.707107 -0.353553
v 0.749999 0.500000 -0.433012
v 0.836516 0.258819 -0.482963
v 0.866025 0.000000 -0.500000
v 0.836516 -0.258819 -0.482963
v 0.749999 -0.500000 -0.433013
v 0.612372 -0.707107 -0.353553
v 0.433012 -0.866025 -0.250000
v 0.224143 -0.965926 -0.129409
v 0.258818 0.965926 -0.000000
v 0.499999 0.866025 0.000000
v 0.707106 0.707107 0.000000
v 0.866025 0.500000 0.000000
v 0.965925 0.258819 0.000000
v 0.999999 0.000000 0.000000
v 0.965925 -0.258819 0.000000
v 0.866025 -0.500000 0.000000
v 0.707106 -0.707107 0.000000
v 0.499999 -0.866025 0.000000
v 0.258819 -0.965926 -0.000000
v 0.224143 0.965926 0.129409
v 0.433012 0.866025 0.250000
v 0.612372 0.707107 0.353553
v 0.749999 0.500000 0.433012
v 0.836516 0.258819 0.482963
v 0.866025 0.000000 0.500000
v 0.836516 -0.258819 0.482963
v 0.749999 -0.500000 0.433013
v 0.612372 -0.707107 0.353553
v 0.433012 -0.866025 0.250000
v 0.224143 -0.965926 0.129409
v 0.129409 0.965926 0.224143
v 0.249999 0.866025 0.433012
v 0.353553 0.707107 0.612372
v 0.433012 0.500000 0.750000
v 0.482962 0.258819 0.836516
v 0.499999 0.000000 0.866025
v 0.482962 -0.258819 0.836516
v 0.433012 -0.500000 0.750000
v 0.353553 -0.707107 0.612372
v 0.249999 -0.866025 0.433013
v 0.129409 -0.965926 0.224144
v -0.000000 0.965926 0.258819
v -0.000000 0.866025 0.499999
v -0.000001 0.707107 0.707106
v -0.000000 0.500000 0.866025
v -0.000000 0.258819 0.965925
v -0.000001 0.000000 0.999999
v -0.000000 -0.258819 0.965925
v -0.000000 -0.500000 0.866025
v -0.000000 -0.707107 0.707107
v -0.000000 -0.866025 0.500000
v -0.000000 -0.965926 0.258819
v -0.129410 0.965926 0.224143
v -0.250000 0.866025 0.433012
v -0.353554 0.707107 0.612372
v -0.433013 0.500000 0.749999
v -0.482963 0.258819 0.836516
v -0.500000 0.000000 0.866025
v -0.482963 -0.258819 0.836516
v -0.433013 -0.500000 0.750000
v -0.353554 -0.707107 0.612372
v -0.250000 -0.866025 0.433012
v -0.129410 -0.965926 0.224144
v -0.224144 0.965926 0.129409
v -0.433013 0.866025 0.250000
v -0.612372 0.707107 0.353553
v -0.750000 0.500000 0.433012
v -0.836516 0.258819 0.482963
v -0.866025 0.000000 0.500000
v -0.836516 -0.258819 0.482963
v -0.750000 -0.500000 0.433012
v -0.612373 -0.707107 0.353553
v -0.433013 -0.866025 0.250000
v -0.224144 -0.965926 0.129409
vn -0.1304 0.9908 -0.0350
vn -0.8968 -0.3715 -0.2403
vn -0.8968 0.3715 -0.2403
vn -0.1304 -0.9908 -0.0350
vn -0.3807 0.9191 -0.1020
vn -0.7760 -0.5955 -0.2079
vn -0.9582 0.1262 -0.2568
vn -0.6008 0.7830 -0.1610
vn -0.6008 -0.7830 -0.1610
vn -0.9582 -0.1262 -0.2568
vn -0.7760 0.5955 -0.2079
vn -0.3807 -0.9191 -0.1020
vn -0.7015 0.1262 -0.7015
vn -0.4398 0.7830 -0.4398
vn -0.4398 -0.7830 -0.4398
vn -0.7015 -0.1262 -0.7015
vn -0.5681 0.5955 -0.5681
vn -0.2787 -0.9191 -0.2787
vn -0.0955 0.9908 -0.0955
vn -0.6565 -0.3715 -0.6565
vn -0.6565 0.3715 -0.6565
vn -0.0955 -0.9908 -0.0955
vn -0.2787 0.9191 -0.2787
vn -0.5681 -0.5955 -0.5681
vn -0.2403 0.3715 -0.8968
vn -0.0350 -0.9908 -0.1304
vn -0.1020 0.9191 -0.3807
vn -0.2079 -0.5955 -0.7760
vn -0.2568 0.1262 -0.9582
vn -0.1610 0.7830 -0.6008
vn -0.1610 -0.7830 -0.6008
vn -0.2568 -0.1262 -0.9582
vn -0.2079 0.5955 -0.7760
vn -0.1020 -0.9191 -0.3807
vn -0.0350 0.9908 -0.1304
vn -0.2403 -0.3715 -0.8968
vn 0.2568 -0.1262 -0.9582
vn 0.2079 0.5955 -0.7760
vn 0.1020 -0.9191 -0.3807
vn 0.0350 0.9908 -0.1304
vn 0.2403 -0.3715 -0.8968
vn 0.2403 0.3715 -0.8968
vn 0.0350 -0.9908 -0.1304
vn 0.1020 0.9191 -0.3807
vn 0.2079 -0.5955 -0.7760
vn 0.2568 0.1262 -0.9582
vn 0.1610 0.7830 -0.6008
vn 0.1610 -0.7830 -0.6008
vn 0.7015 0.1262 -0.7015
vn 0.4398 0.7830 -0.4398
vn 0.4398 -0.7830 -0.4398
vn 0.7015 -0.1262 -0.7015
vn 0.5681 0.5955 -0.5681
vn 0.2787 -0.9191 -0.2787
vn 0.0955 0.9908 -0.0955
vn 0.6565 -0.3715 -0.6565
vn 0.6565 0.3715 -0.6565
vn 0.0955 -0.9908 -0.0955
vn 0.2787 0.9191 -0.2787
vn 0.5681 -0.5955 -0.5681
vn 0.8968 -0.3715 -0.2403
vn 0.8968 0.3715 -0.2403
vn 0.1304 -0.9908 -0.0350
vn 0.3807 0.9191 -0.1020
vn 0.7760 -0.5955 -0.2079
vn 0.9582 0.1261 -0.2568
vn 0.6008 0.7830 -0.1610
vn 0.6008 -0.7830 -0.1610
vn 0.9582 -0.1262 -0.2568
vn 0.7760 0.5955 -0.2079
vn 0.3807 -0.9191 -0.1020
vn 0.1304 0.9908 -0.0350
vn 0.9582 -0.1262 0.2568
vn 0.7760 0.5955 0.2079
vn 0.3807 -0.9191 0.1020
vn 0.1304 0.9908 0.0350
vn 0.8968 -0.3715 0.2403
vn 0.8968 0.3715 0.2403
vn 0.1304 -0.9908 0.0350
vn 0.3807 0.9191 0.1020
vn 0.7760 -0.5955 0.2079
vn 0.9582 0.1262 0.2568
vn 0.6008 0.7830 0.1610
vn 0.6008 -0.7830 0.1610
vn 0.5681 -0.5955 0.5681
vn 0.7015 0.1262 0.7015
vn 0.4398 0.7830 0.4398
vn 0.4398 -0.7830 0.4398
vn 0.7015 -0.1262 0.7015
vn 0.5681 0.5955 0.5681
vn 0.2787 -0.9191 0.2787
vn 0.0955 0.9908 0.0955
vn 0.6565 -0.3715 0.6565
vn 0.6565 0.3715 0.6565
vn 0.0955 -0.9908 0.0955
vn 0.2787 0.9191 0.2787
vn 0.0350 0.9908 0.1304
vn 0.2403 -0.3715 0.8968
vn 0.2403 0.3715 0.8968
vn 0.0350 -0.9908 0.1304
vn 0.1020 0.9191 0.3807
vn 0.2079 -0.5955 0.7760
vn 0.2568 0.1262 0.9582
vn 0.1610 0.7830 0.6008
vn 0.1610 -0.7830 0.6008
vn 0.2568 -0.1262 0.9582
vn 0.2079 0.5955 0.7760
vn 0.1020 -0.9191 0.3807
vn -0.1610 -0.7830 0.6008
vn -0.2568 -0.1262 0.9582
vn -0.2079 0.5955 0.7760
vn -0.1020 -0.9191 0.3807
vn -0.0350 0.9908 0.1304
vn -0.2403 -0.3715 0.8968
vn -0.2403 0.3715 0.8968
vn -0.0350 -0.9908 0.1304
vn -0.1020 0.9191 0.3807
vn -0.2079 -0.5955 0.7760
vn -0.2568 0.1262 0.9582
vn -0.1610 0.7830 0.6008
vn -0.2787 0.9191 0.2787
vn -0.5681 -0.5955 0.5681
vn -0.7015 0.1262 0.7015
vn -0.4398 0.7830 0.4398
vn -0.4398 -0.7830 0.4398
vn -0.7015 -0.1262 0.7015
vn -0.5681 0.5955 0.5681
vn -0.2787 -0.9191 0.2787
vn -0.0955 0.9908 0.0955
vn -0.6565 -0.3715 0.6565
vn -0.6565 0.3715 0.6565
vn -0.0955 -0.9908 0.0955
vn -0.3807 -0.9191 0.1020
vn -0.1304 0.9908 0.0350
vn -0.8968 -0.3715 0.2403
vn -0.8968 0.3715 0.2403
vn -0.1304 -0.9908 0.0350
vn -0.3807 0.9191 0.1020
vn -0.7760 -0.5955 0.2079
vn -0.9582 0.1262 0.2568
vn -0.6008 0.7830 0.1610
vn -0.6008 -0.7830 0.1610
vn -0.9582 -0.1262 0.2568
vn -0.7760 0.5955 0.2079
vn 0.9582 0.1262 -0.2568
vn 0.9582 -0.1261 -0.2568
s off
f 1//1 57//1 13//1
f 7//2 20//2 8//2
f 5//3 16//3 17//3
f 12//4 11//4 23//4
f 1//5 14//5 2//5
f 9//6 20//6 21//6
f 5//7 18//7 6//7
f 2//8 15//8 3//8
f 9//9 22//9 10//9
f 6//10 19//10 7//10
f 3//11 16//11 4//11
f 10//12 23//12 11//12
f 17//13 29//13 18//13
f 14//14 26//14 15//14
f 22//15 32//15 33//15
f 18//16 30//16 19//16
f 15//17 27//17 16//17
f 23//18 33//18 34//18
f 13//19 57//19 24//19
f 20//20 30//20 31//20
f 16//21 28//21 17//21
f 12//22 23//22 34//22
f 13//23 25//23 14//23
f 20//24 32//24 21//24
f 28//25 38//25 39//25
f 12//26 34//26 45//26
f 24//27 36//27 25//27
f 31//28 43//28 32//28
f 28//29 40//29 29//29
f 25//30 37//30 26//30
f 33//31 43//31 44//31
f 29//32 41//32 30//32
f 26//33 38//33 27//33
f 34//34 44//34 45//34
f 24//35 57//35 35//35
f 31//36 41//36 42//36
f 40//37 52//37 41//37
f 38//38 48//38 49//38
f 45//39 55//39 56//39
f 35//40 57//40 46//40
f 41//41 53//41 42//41
f 38//42 50//42 39//42
f 12//43 45//43 56//43
f 35//44 47//44 36//44
f 42//45 54//45 43//45
f 39//46 51//46 40//46
f 36//47 48//47 37//47
f 44//48 54//48 55//48
f 50//49 63//49 51//49
f 47//50 60//50 48//50
f 54//51 67//51 55//51
f 51//52 64//52 52//52
f 48//53 61//53 49//53
f 55//54 68//54 56//54
f 46//55 57//55 58//55
f 52//56 65//56 53//56
f 49//57 62//57 50//57
f 12//58 56//58 68//58
f 46//59 59//59 47//59
f 53//60 66//60 54//60
f 64//61 76//61 65//61
f 61//62 73//62 62//62
f 12//63 68//63 79//63
f 59//64 69//64 70//64
f 66//65 76//65 77//65
f 63//66 73//66 74//66
f 59//67 71//67 60//67
f 66//68 78//68 67//68
f 63//69 75//69 64//69
f 60//70 72//70 61//70
f 67//71 79//71 68//71
f 58//72 57//72 69//72
f 75//73 85//73 86//73
f 71//74 83//74 72//74
f 78//75 90//75 79//75
f 69//76 57//76 80//76
f 75//77 87//77 76//77
f 72//78 84//78 73//78
f 12//79 79//79 90//79
f 70//80 80//80 81//80
f 77//81 87//81 88//81
f 74//82 84//82 85//82
f 70//83 82//83 71//83
f 77//84 89//84 78//84
f 88//85 98//85 99//85
f 85//86 95//86 96//86
f 82//87 92//87 93//87
f 89//88 99//88 100//88
f 85//89 97//89 86//89
f 82//90 94//90 83//90
f 89//91 101//91 90//91
f 80//92 57//92 91//92
f 87//93 97//93 98//93
f 83//94 95//94 84//94
f 12//95 90//95 101//95
f 80//96 92//96 81//96
f 91//97 57//97 102//97
f 97//98 109//98 98//98
f 94//99 106//99 95//99
f 12//100 101//100 112//100
f 91//101 103//101 92//101
f 98//102 110//102 99//102
f 95//103 107//103 96//103
f 92//104 104//104 93//104
f 100//105 110//105 111//105
f 96//106 108//106 97//106
f 93//107 105//107 94//107
f 100//108 112//108 101//108
f 111//109 121//109 122//109
f 107//110 119//110 108//110
f 104//111 116//111 105//111
f 111//112 123//112 112//112
f 102//113 57//113 113//113
f 108//114 120//114 109//114
f 105//115 117//115 106//115
f 12//116 112//116 123//116
f 102//117 114//117 103//117
f 109//118 121//118 110//118
f 107//119 117//119 118//119
f 104//120 114//120 115//120
f 114//121 124//121 125//121
f 120//122 132//122 121//122
f 117//123 129//123 118//123
f 115//124 125//124 126//124
f 122//125 132//125 133//125
f 118//126 130//126 119//126
f 115//127 127//127 116//127
f 122//128 134//128 123//128
f 113//129 57//129 124//129
f 119//130 131//130 120//130
f 116//131 128//131 117//131
f 12//132 123//132 134//132
f 133//133 11//133 134//133
f 124//134 57//134 1//134
f 130//135 8//135 131//135
f 127//136 5//136 128//136
f 12//137 134//137 11//137
f 125//138 1//138 2//138
f 131//139 9//139 132//139
f 129//140 5//140 6//140
f 126//141 2//141 3//141
f 132//142 10//142 133//142
f 129//143 7//143 130//143
f 126//144 4//144 127//144
f 7//2 19//2 20//2
f 5//3 4//3 16//3
f 1//5 13//5 14//5
f 9//6 8//6 20//6
f 5//7 17//7 18//7
f 2//8 14//8 15//8
f 9//9 21//9 22//9
f 6//10 18//10 19//10
f 3//11 15//11 16//11
f 10//12 22//12 23//12
f 17//13 28//13 29//13
f 14//14 25//14 26//14
f 22//15 21//15 32//15
f 18//16 29//16 30//16
f 15//17 26//17 27//17
f 23//18 22//18 33//18
f 20//20 19//20 30//20
f 16//21 27//21 28//21
f 13//23 24//23 25//23
f 20//24 31//24 32//24
f 28//25 27//25 38//25
f 24//27 35//27 36//27
f 31//28 42//28 43//28
f 28//29 39//29 40//29
f 25//30 36//30 37//30
f 33//31 32//31 43//31
f 29//32 40//32 41//32
f 26//33 37//33 38//33
f 34//34 33//34 44//34
f 31//36 30//36 41//36
f 40//37 51//37 52//37
f 38//38 37//38 48//38
f 45//39 44//39 55//39
f 41//41 52//41 53//41
f 38//42 49//42 50//42
f 35//44 46//44 47//44
f 42//45 53//45 54//45
f 39//46 50//46 51//46
f 36//47 47//47 48//47
f 44//48 43//48 54//48
f 50//49 62//49 63//49
f 47//50 59//50 60//50
f 54//51 66//51 67//51
f 51//52 63//52 64//52
f 48//53 60//53 61//53
f 55//54 67//54 68//54
f 52//56 64//56 65//56
f 49//57 61//57 62//57
f 46//59 58//59 59//59
f 53//60 65//60 66//60
f 64//61 75//61 76//61
f 61//62 72//62 73//62
f 59//64 58//64 69//64
f 66//65 65//65 76//65
f 63//145 62//145 73//145
f 59//67 70//67 71//67
f 66//68 77//68 78//68
f 63//146 74//146 75//146
f 60//70 71//70 72//70
f 67//71 78//71 79//71
f 75//73 74//73 85//73
f 71//74 82//74 83//74
f 78//75 89//75 90//75
f 75//77 86//77 87//77
f 72//78 83//78 84//78
f 70//80 69//80 80//80
f 77//81 76//81 87//81
f 74//82 73//82 84//82
f 70//83 81//83 82//83
f 77//84 88//84 89//84
f 88//85 87//85 98//85
f 85//86 84//86 95//86
f 82//87 81//87 92//87
f 89//88 88//88 99//88
f 85//89 96//89 97//89
f 82//90 93//90 94//90
f 89//91 100//91 101//91
f 87//93 86//93 97//93
f 83//94 94//94 95//94
f 80//96 91//96 92//96
f 97//98 108//98 109//98
f 94//99 105//99 106//99
f 91//101 102//101 103//101
f 98//102 109//102 110//102
f 95//103 106//103 107//103
f 92//104 103//104 104//104
f 100//105 99//105 110//105
f 96//106 107//106 108//106
f 93//107 104//107 105//107
f 100//108 111//108 112//108
f 111//109 110//109 121//109
f 107//110 118//110 119//110
f 104//111 115//111 116//111
f 111//112 122//112 123//112
f 108//114 119//114 120//114
f 105//115 116//115 117//115
f 102//117 113//117 114//117
f 109//118 120//118 121//118
f 107//119 106//119 117//119
f 104//120 103//120 114//120
f 114//121 113//121 124//121
f 120//122 131//122 132//122
f 117//123 128//123 129//123
f 115//124 114//124 125//124
f 122//125 121//125 132//125
f 118//126 129//126 130//126
f 115//127 126//127 127//127
f 122//128 133//128 134//128
f 119//130 130//130 131//130
f 116//131 127//131 128//131
f 133//133 10//133 11//133
f 130//135 7//135 8//135
f 127//136 4//136 5//136
f 125//138 124//138 1//138
f 131//139 8//139 9//139
f 129//140 128//140 5//140
f 126//141 125//141 2//141
f 132//142 9//142 10//142
f 129//143 6//143 7//143
f 126//144 3//144 4//144
